<svg xmlns="http://www.w3.org/2000/svg" width="19.616" height="19.616" viewBox="0 0 19.616 19.616">
  <path id="bxs-dice-4" d="M20.437,3H5.18A2.182,2.182,0,0,0,3,5.18V20.437a2.182,2.182,0,0,0,2.18,2.18H20.437a2.182,2.182,0,0,0,2.18-2.18V5.18A2.182,2.182,0,0,0,20.437,3ZM8.449,18.8a1.635,1.635,0,1,1,1.636-1.635A1.635,1.635,0,0,1,8.449,18.8Zm0-8.718a1.635,1.635,0,1,1,1.636-1.635,1.635,1.635,0,0,1-1.636,1.635ZM17.167,18.8A1.635,1.635,0,1,1,18.8,17.167,1.635,1.635,0,0,1,17.167,18.8Zm0-8.718A1.635,1.635,0,1,1,18.8,8.449,1.635,1.635,0,0,1,17.167,10.084Z" transform="translate(-3 -3)" fill="#fff"/>
</svg>
